<mxfile host="app.diagrams.net" agent="Mozilla/5.0 (Windows NT 10.0; Win64; x64) AppleWebKit/537.36 (KHTML, like Gecko) Chrome/128.0.0.0 Safari/537.36 Edg/128.0.0.0" version="24.7.14">
  <diagram name="Page-1" id="e7e014a7-5840-1c2e-5031-d8a46d1fe8dd">
    <mxGraphModel dx="1834" dy="986" grid="1" gridSize="10" guides="1" tooltips="1" connect="1" arrows="1" fold="1" page="1" pageScale="1" pageWidth="1169" pageHeight="826" background="none" math="0" shadow="0">
      <root>
        <mxCell id="0" />
        <mxCell id="1" parent="0" />
        <mxCell id="3" value="Dimension and Fact Aggregation" style="swimlane;whiteSpace=wrap;fontSize=16;" parent="1" vertex="1">
          <mxGeometry x="430" y="90" width="480" height="720" as="geometry" />
        </mxCell>
        <mxCell id="Fj4q3F7yAHKbmUtNdAKV-152" value="Milestones" style="fillColor=#ffcd28;gradientColor=#ffa500;strokeColor=#d79b00;" parent="3" vertex="1">
          <mxGeometry x="320" y="500" width="130" height="40" as="geometry" />
        </mxCell>
        <mxCell id="Fj4q3F7yAHKbmUtNdAKV-154" value="Program Health" style="fillColor=#e6d0de;gradientColor=#d5739d;strokeColor=#996185;" parent="3" vertex="1">
          <mxGeometry x="320" y="560" width="130" height="40" as="geometry" />
        </mxCell>
        <mxCell id="Fj4q3F7yAHKbmUtNdAKV-117" value="&amp;nbsp; &amp;nbsp; &amp;nbsp;&lt;font style=&quot;font-size: 15px;&quot;&gt;Dimension Table&lt;/font&gt;&lt;div style=&quot;font-size: 18px;&quot;&gt;&amp;nbsp; &amp;nbsp; &amp;nbsp;&lt;span style=&quot;background-color: initial;&quot;&gt;&lt;b&gt;ProgramKey&lt;/b&gt;&lt;/span&gt;&lt;/div&gt;&lt;div style=&quot;&quot;&gt;&lt;b style=&quot;font-size: 18px;&quot;&gt;&amp;nbsp; &amp;nbsp; &amp;nbsp;&lt;/b&gt;&lt;font style=&quot;font-size: 12px;&quot;&gt;ProgramID + PE + BPAC&lt;/font&gt;&lt;/div&gt;" style="shape=internalStorage;whiteSpace=wrap;html=1;backgroundOutline=1;fillColor=#235c39;strokeColor=#bac8d3;dx=17;dy=28;align=left;horizontal=1;verticalAlign=top;fontSize=18;fontColor=#FAFAFF;" parent="3" vertex="1">
          <mxGeometry x="77.5" y="40" width="175" height="80" as="geometry" />
        </mxCell>
        <mxCell id="Fj4q3F7yAHKbmUtNdAKV-150" value="Budget &amp; Execution" style="fillColor=#d5e8d4;gradientColor=#97d077;strokeColor=#82b366;" parent="3" vertex="1">
          <mxGeometry x="320" y="55" width="130" height="50" as="geometry" />
        </mxCell>
        <mxCell id="Fj4q3F7yAHKbmUtNdAKV-140" value="" style="endArrow=classic;html=1;rounded=0;strokeWidth=4;fillColor=#60a917;strokeColor=#2D7600;jumpStyle=arc;exitX=1;exitY=0.5;exitDx=0;exitDy=0;entryX=0;entryY=0.5;entryDx=0;entryDy=0;" parent="3" source="Fj4q3F7yAHKbmUtNdAKV-117" target="Fj4q3F7yAHKbmUtNdAKV-150" edge="1">
          <mxGeometry width="50" height="50" relative="1" as="geometry">
            <mxPoint x="60" y="174.24" as="sourcePoint" />
            <mxPoint x="320" y="155" as="targetPoint" />
          </mxGeometry>
        </mxCell>
        <mxCell id="Fj4q3F7yAHKbmUtNdAKV-153" value="Products &amp; Transitions" style="fillColor=#dae8fc;gradientColor=#7ea6e0;strokeColor=#6c8ebf;" parent="3" vertex="1">
          <mxGeometry x="320" y="130" width="130" height="50" as="geometry" />
        </mxCell>
        <mxCell id="Fj4q3F7yAHKbmUtNdAKV-177" value="" style="group" parent="3" vertex="1" connectable="0">
          <mxGeometry x="90" y="190" width="250" height="190" as="geometry" />
        </mxCell>
        <mxCell id="Fj4q3F7yAHKbmUtNdAKV-176" value="" style="rounded=0;whiteSpace=wrap;html=1;strokeColor=none;fillColor=#23445d;" parent="Fj4q3F7yAHKbmUtNdAKV-177" vertex="1">
          <mxGeometry width="250" height="190" as="geometry" />
        </mxCell>
        <mxCell id="Fj4q3F7yAHKbmUtNdAKV-116" value="&amp;nbsp; &amp;nbsp; &amp;nbsp;&lt;font style=&quot;font-size: 15px;&quot;&gt;Dimension Table&lt;/font&gt;&lt;div style=&quot;font-size: 18px;&quot;&gt;&amp;nbsp; &amp;nbsp; &amp;nbsp;&lt;span style=&quot;background-color: initial;&quot;&gt;&lt;b&gt;ProgramID &amp;amp; Detail&amp;nbsp;&lt;/b&gt;&lt;/span&gt;&lt;/div&gt;&lt;div style=&quot;&quot;&gt;&lt;span style=&quot;background-color: initial;&quot;&gt;&lt;b style=&quot;&quot;&gt;&amp;nbsp; &amp;nbsp; &amp;nbsp;&lt;font style=&quot;font-size: 12px;&quot;&gt;All extant ProgramIDs&lt;/font&gt;&lt;/b&gt;&lt;/span&gt;&lt;/div&gt;" style="shape=internalStorage;whiteSpace=wrap;html=1;backgroundOutline=1;fillColor=#23445d;strokeColor=#D4E1F5;dx=17;dy=28;align=left;horizontal=1;verticalAlign=top;fontSize=18;fontColor=#DBDBDB;" parent="Fj4q3F7yAHKbmUtNdAKV-177" vertex="1">
          <mxGeometry width="250" height="90" as="geometry" />
        </mxCell>
        <mxCell id="Fj4q3F7yAHKbmUtNdAKV-145" value="&lt;font style=&quot;font-size: 10px;&quot;&gt;&amp;nbsp; &amp;nbsp; &amp;nbsp; &amp;nbsp;Dimension&amp;nbsp;Table&lt;/font&gt;&lt;div&gt;&lt;div&gt;&lt;span style=&quot;&quot;&gt;&amp;nbsp; &amp;nbsp; &amp;nbsp; &lt;b&gt;&quot;Org&quot;&amp;nbsp; (Dir/Div/Branch)&lt;/b&gt;&lt;br&gt;&lt;/span&gt;&lt;div style=&quot;font-size: 10px;&quot;&gt;&lt;font style=&quot;font-size: 10px;&quot;&gt;&amp;nbsp; &amp;nbsp; &amp;nbsp; &amp;nbsp;Normalizing variations&lt;/font&gt;&lt;/div&gt;&lt;/div&gt;&lt;/div&gt;" style="shape=internalStorage;whiteSpace=wrap;html=1;backgroundOutline=1;fillColor=#bac8d3;strokeColor=#23445d;dx=17;dy=19;align=left;horizontal=1;verticalAlign=top;spacing=0;" parent="Fj4q3F7yAHKbmUtNdAKV-177" vertex="1">
          <mxGeometry x="21.428571428571427" y="90" width="228.57142857142856" height="50" as="geometry" />
        </mxCell>
        <mxCell id="Fj4q3F7yAHKbmUtNdAKV-175" value="&lt;font style=&quot;font-size: 10px;&quot;&gt;&amp;nbsp; &amp;nbsp; &amp;nbsp; &amp;nbsp;Dimension&amp;nbsp;Table&lt;/font&gt;&lt;div&gt;&lt;div&gt;&lt;span style=&quot;&quot;&gt;&amp;nbsp; &amp;nbsp; &amp;nbsp; &lt;b&gt;Budget Activity&lt;/b&gt;&lt;br&gt;&lt;/span&gt;&lt;div style=&quot;font-size: 10px;&quot;&gt;&lt;font style=&quot;font-size: 10px;&quot;&gt;&amp;nbsp; &amp;nbsp; &amp;nbsp; &amp;nbsp;Normalizing variations&lt;/font&gt;&lt;/div&gt;&lt;/div&gt;&lt;/div&gt;" style="shape=internalStorage;whiteSpace=wrap;html=1;backgroundOutline=1;fillColor=#bac8d3;strokeColor=#23445d;dx=17;dy=19;align=left;horizontal=1;verticalAlign=top;spacing=0;" parent="Fj4q3F7yAHKbmUtNdAKV-177" vertex="1">
          <mxGeometry x="47.61904761904762" y="140" width="202.38095238095238" height="50" as="geometry" />
        </mxCell>
        <mxCell id="Fj4q3F7yAHKbmUtNdAKV-179" value="" style="endArrow=classic;html=1;rounded=0;exitX=1;exitY=0.5;exitDx=0;exitDy=0;strokeWidth=4;fillColor=#0050ef;strokeColor=#CC0000;jumpStyle=arc;entryX=0;entryY=0.5;entryDx=0;entryDy=0;" parent="3" source="Fj4q3F7yAHKbmUtNdAKV-132" target="Fj4q3F7yAHKbmUtNdAKV-151" edge="1">
          <mxGeometry width="50" height="50" relative="1" as="geometry">
            <mxPoint x="310" y="451" as="sourcePoint" />
            <mxPoint x="300" y="430" as="targetPoint" />
          </mxGeometry>
        </mxCell>
        <mxCell id="Fj4q3F7yAHKbmUtNdAKV-180" value="" style="endArrow=classic;html=1;rounded=0;strokeWidth=4;fillColor=#60a917;strokeColor=#11202C;jumpStyle=arc;exitX=0.297;exitY=0.001;exitDx=0;exitDy=0;entryX=0.5;entryY=1;entryDx=0;entryDy=0;exitPerimeter=0;" parent="3" source="Fj4q3F7yAHKbmUtNdAKV-116" target="Fj4q3F7yAHKbmUtNdAKV-117" edge="1">
          <mxGeometry width="50" height="50" relative="1" as="geometry">
            <mxPoint x="240" y="90" as="sourcePoint" />
            <mxPoint x="330" y="90" as="targetPoint" />
          </mxGeometry>
        </mxCell>
        <mxCell id="Fj4q3F7yAHKbmUtNdAKV-132" value="&amp;nbsp; &amp;nbsp; &amp;nbsp;&lt;font style=&quot;font-size: 15px;&quot;&gt;Dimension Table&lt;/font&gt;&lt;div style=&quot;font-size: 18px;&quot;&gt;&amp;nbsp; &amp;nbsp; &amp;nbsp;&lt;b&gt;PMapp&lt;/b&gt;&lt;span style=&quot;background-color: initial;&quot;&gt;&lt;b&gt;Key&lt;/b&gt;&lt;/span&gt;&lt;/div&gt;&lt;div style=&quot;&quot;&gt;&lt;b style=&quot;font-size: 18px;&quot;&gt;&amp;nbsp; &amp;nbsp; &amp;nbsp;&lt;/b&gt;&lt;font style=&quot;font-size: 12px;&quot;&gt;ProgramID + Budget Activity&lt;/font&gt;&lt;/div&gt;" style="shape=internalStorage;whiteSpace=wrap;html=1;backgroundOutline=1;fillColor=#5D2020;strokeColor=#D3A5A5;dx=17;dy=28;align=left;horizontal=1;verticalAlign=top;fontSize=18;fontColor=#FAFAFF;" parent="3" vertex="1">
          <mxGeometry x="75" y="410" width="180" height="80" as="geometry" />
        </mxCell>
        <mxCell id="Fj4q3F7yAHKbmUtNdAKV-151" value="Risk" style="fillColor=#f8cecc;gradientColor=#ea6b66;strokeColor=#b85450;" parent="3" vertex="1">
          <mxGeometry x="320" y="430" width="130" height="40" as="geometry" />
        </mxCell>
        <mxCell id="Fj4q3F7yAHKbmUtNdAKV-215" value="" style="endArrow=classic;html=1;rounded=0;strokeWidth=4;fillColor=#60a917;strokeColor=#11202C;jumpStyle=arc;exitX=0.084;exitY=1.002;exitDx=0;exitDy=0;entryX=0.199;entryY=0.007;entryDx=0;entryDy=0;entryPerimeter=0;exitPerimeter=0;" parent="3" source="Fj4q3F7yAHKbmUtNdAKV-176" target="Fj4q3F7yAHKbmUtNdAKV-132" edge="1">
          <mxGeometry width="50" height="50" relative="1" as="geometry">
            <mxPoint x="70" y="240" as="sourcePoint" />
            <mxPoint x="99" y="240" as="targetPoint" />
          </mxGeometry>
        </mxCell>
        <mxCell id="Fj4q3F7yAHKbmUtNdAKV-218" value="" style="endArrow=classic;html=1;rounded=0;exitX=0.75;exitY=1;exitDx=0;exitDy=0;strokeWidth=4;fillColor=#f0a30a;strokeColor=#BD7000;entryX=-0.002;entryY=0.67;entryDx=0;entryDy=0;jumpStyle=arc;edgeStyle=orthogonalEdgeStyle;elbow=vertical;entryPerimeter=0;" parent="3" source="Fj4q3F7yAHKbmUtNdAKV-132" target="Fj4q3F7yAHKbmUtNdAKV-152" edge="1">
          <mxGeometry width="50" height="50" relative="1" as="geometry">
            <mxPoint x="140" y="526" as="sourcePoint" />
            <mxPoint x="302" y="490" as="targetPoint" />
          </mxGeometry>
        </mxCell>
        <mxCell id="4" value="Analysis Artifacts &amp; KPIs" style="swimlane;whiteSpace=wrap;fontSize=16;" parent="1" vertex="1">
          <mxGeometry x="910" y="90" width="200" height="720" as="geometry" />
        </mxCell>
        <mxCell id="Fj4q3F7yAHKbmUtNdAKV-53" value="Sources" style="swimlane;whiteSpace=wrap;fontSize=16;" parent="1" vertex="1">
          <mxGeometry x="19" y="90" width="151" height="720" as="geometry" />
        </mxCell>
        <mxCell id="0qAKshBfbLGbxvA9z3j8-20" value="" style="group" vertex="1" connectable="0" parent="Fj4q3F7yAHKbmUtNdAKV-53">
          <mxGeometry x="20" y="50" width="110" height="656" as="geometry" />
        </mxCell>
        <mxCell id="Fj4q3F7yAHKbmUtNdAKV-109" value="ADR / Cognos&#xa;R&amp;D Master List" style="fillColor=#f5f5f5;gradientColor=#b3b3b3;strokeColor=#666666;" parent="0qAKshBfbLGbxvA9z3j8-20" vertex="1">
          <mxGeometry y="560" width="110" height="38" as="geometry" />
        </mxCell>
        <mxCell id="Fj4q3F7yAHKbmUtNdAKV-58" value="PBES&#xa;PBES" style="fillColor=#f5f5f5;gradientColor=#b3b3b3;strokeColor=#666666;" parent="0qAKshBfbLGbxvA9z3j8-20" vertex="1">
          <mxGeometry width="110" height="30" as="geometry" />
        </mxCell>
        <mxCell id="Fj4q3F7yAHKbmUtNdAKV-57" value="CCaR&#xa;CCaR" style="fillColor=#f5f5f5;gradientColor=#b3b3b3;strokeColor=#666666;" parent="0qAKshBfbLGbxvA9z3j8-20" vertex="1">
          <mxGeometry y="40" width="110" height="68" as="geometry" />
        </mxCell>
        <mxCell id="Fj4q3F7yAHKbmUtNdAKV-54" value="ADR / Cognos &#xa;EP2" style="fillColor=#f5f5f5;strokeColor=#666666;gradientColor=#b3b3b3;" parent="0qAKshBfbLGbxvA9z3j8-20" vertex="1">
          <mxGeometry y="130" width="110" height="190" as="geometry" />
        </mxCell>
        <mxCell id="Fj4q3F7yAHKbmUtNdAKV-55" value="ADR / Cognos&#xa;PM App" style="fillColor=#f5f5f5;strokeColor=#666666;gradientColor=#b3b3b3;" parent="0qAKshBfbLGbxvA9z3j8-20" vertex="1">
          <mxGeometry y="332" width="110" height="110" as="geometry" />
        </mxCell>
        <mxCell id="Fj4q3F7yAHKbmUtNdAKV-74" value="ADR / Cognos&#xa;Milestones" style="fillColor=#f5f5f5;strokeColor=#666666;gradientColor=#b3b3b3;" parent="0qAKshBfbLGbxvA9z3j8-20" vertex="1">
          <mxGeometry y="460" width="110" height="30" as="geometry" />
        </mxCell>
        <mxCell id="Fj4q3F7yAHKbmUtNdAKV-56" value="ADR / Cognos&#xa;Program Health" style="fillColor=#f5f5f5;gradientColor=#b3b3b3;strokeColor=#666666;" parent="0qAKshBfbLGbxvA9z3j8-20" vertex="1">
          <mxGeometry y="506" width="110" height="38" as="geometry" />
        </mxCell>
        <mxCell id="Fj4q3F7yAHKbmUtNdAKV-130" value="SAF-AQ&#xa;PMRT" style="fillColor=#f5f5f5;gradientColor=#b3b3b3;strokeColor=#666666;" parent="0qAKshBfbLGbxvA9z3j8-20" vertex="1">
          <mxGeometry y="618" width="110" height="38" as="geometry" />
        </mxCell>
        <mxCell id="2" value="Report Acquition" style="swimlane;whiteSpace=wrap;fontSize=16;" parent="1" vertex="1">
          <mxGeometry x="170" y="90" width="260" height="720" as="geometry" />
        </mxCell>
        <mxCell id="Fj4q3F7yAHKbmUtNdAKV-59" value="Products &amp; Transitions" style="fillColor=#dae8fc;gradientColor=#7ea6e0;strokeColor=#6c8ebf;" parent="2" vertex="1">
          <mxGeometry x="40" y="220" width="160" height="28" as="geometry" />
        </mxCell>
        <mxCell id="Fj4q3F7yAHKbmUtNdAKV-90" value="" style="endArrow=open;strokeColor=#001DBC;endFill=1;rounded=0;exitX=1;exitY=0.5;exitDx=0;exitDy=0;fillColor=#0050ef;edgeStyle=elbowEdgeStyle;entryX=0.5;entryY=1;entryDx=0;entryDy=0;" parent="2" source="Fj4q3F7yAHKbmUtNdAKV-95" edge="1" target="Fj4q3F7yAHKbmUtNdAKV-155">
          <mxGeometry relative="1" as="geometry">
            <mxPoint x="170" y="134" as="sourcePoint" />
            <mxPoint x="240" y="240" as="targetPoint" />
            <Array as="points">
              <mxPoint x="230" y="300" />
            </Array>
          </mxGeometry>
        </mxCell>
        <mxCell id="Fj4q3F7yAHKbmUtNdAKV-76" value="Program Health Assessment" style="fillColor=#e6d0de;gradientColor=#d5739d;strokeColor=#996185;" parent="2" vertex="1">
          <mxGeometry x="40" y="564" width="160" height="30" as="geometry" />
        </mxCell>
        <mxCell id="Fj4q3F7yAHKbmUtNdAKV-65" value="Risk Report" style="fillColor=#f8cecc;gradientColor=#ea6b66;strokeColor=#b85450;" parent="2" vertex="1">
          <mxGeometry x="40" y="384" width="160" height="30" as="geometry" />
        </mxCell>
        <mxCell id="Fj4q3F7yAHKbmUtNdAKV-68" value="RW Risk Report" style="fillColor=#ffcccc;strokeColor=#36393d;" parent="2" vertex="1">
          <mxGeometry x="40" y="424" width="130" height="28" as="geometry" />
        </mxCell>
        <mxCell id="Fj4q3F7yAHKbmUtNdAKV-69" value="711/HPW Risk Report" style="fillColor=#ffcccc;strokeColor=#36393d;" parent="2" vertex="1">
          <mxGeometry x="40" y="464" width="130" height="28" as="geometry" />
        </mxCell>
        <mxCell id="Fj4q3F7yAHKbmUtNdAKV-86" value="Mile Stone Report" style="fillColor=#ffcd28;gradientColor=#ffa500;strokeColor=#d79b00;" parent="2" vertex="1">
          <mxGeometry x="40" y="512" width="160" height="30" as="geometry" />
        </mxCell>
        <mxCell id="Fj4q3F7yAHKbmUtNdAKV-110" value="R&amp;D Master List" style="fillColor=#23445d;strokeColor=#23445d;fontColor=#9AC7BF;" parent="2" vertex="1">
          <mxGeometry x="40" y="610" width="160" height="38" as="geometry" />
        </mxCell>
        <mxCell id="Fj4q3F7yAHKbmUtNdAKV-75" value="Shared Budget &#xa;(FutureYearDEP)  Report" style="fillColor=#d5e8d4;gradientColor=#97d077;strokeColor=#82b366;" parent="2" vertex="1">
          <mxGeometry x="40" y="180" width="130" height="30" as="geometry" />
        </mxCell>
        <mxCell id="Fj4q3F7yAHKbmUtNdAKV-61" value="Programs &amp; Products &#xa;Report" style="fillColor=#cce5ff;strokeColor=#36393d;fontColor=#000099;" parent="2" vertex="1">
          <mxGeometry x="40" y="262" width="130" height="28" as="geometry" />
        </mxCell>
        <mxCell id="Fj4q3F7yAHKbmUtNdAKV-63" value="All Programs Report" style="fillColor=#cce5ff;strokeColor=#36393d;fontColor=#000099;" parent="2" vertex="1">
          <mxGeometry x="40" y="302" width="130" height="28" as="geometry" />
        </mxCell>
        <mxCell id="Fj4q3F7yAHKbmUtNdAKV-95" value="RW Programs &amp; &#xa;Products Report" style="fillColor=#cce5ff;strokeColor=#36393d;fontColor=#000099;" parent="2" vertex="1">
          <mxGeometry x="40" y="342" width="130" height="28" as="geometry" />
        </mxCell>
        <mxCell id="Fj4q3F7yAHKbmUtNdAKV-131" value="INV001" style="fillColor=#f5f5f5;gradientColor=#b3b3b3;strokeColor=#666666;fontStyle=2" parent="2" vertex="1">
          <mxGeometry x="40" y="670" width="160" height="38" as="geometry" />
        </mxCell>
        <mxCell id="Fj4q3F7yAHKbmUtNdAKV-80" value="CCaR Monthly &#xa;Forecast" style="fillColor=#d5e8d4;strokeColor=#82b366;" parent="2" vertex="1">
          <mxGeometry x="40" y="130" width="130" height="30" as="geometry" />
        </mxCell>
        <mxCell id="Fj4q3F7yAHKbmUtNdAKV-79" value="CCaR Monthly &#xa;Execution" style="fillColor=#d5e8d4;strokeColor=#82b366;" parent="2" vertex="1">
          <mxGeometry x="40" y="90" width="130" height="30" as="geometry" />
        </mxCell>
        <mxCell id="Fj4q3F7yAHKbmUtNdAKV-81" value="PBES" style="fillColor=#f5f5f5;strokeColor=#666666;movable=1;resizable=1;rotatable=1;deletable=1;editable=1;locked=0;connectable=1;gradientColor=#b3b3b3;fontStyle=2" parent="2" vertex="1">
          <mxGeometry x="40" y="50" width="130" height="30" as="geometry" />
        </mxCell>
        <mxCell id="Fj4q3F7yAHKbmUtNdAKV-186" value="" style="endArrow=open;strokeColor=#11202c;endFill=1;rounded=0;fillColor=#0050ef;entryX=0.5;entryY=0;entryDx=0;entryDy=0;jumpStyle=arc;edgeStyle=orthogonalEdgeStyle;exitX=0.5;exitY=1;exitDx=0;exitDy=0;strokeWidth=3;dashed=1;dashPattern=1 1;" parent="2" source="Fj4q3F7yAHKbmUtNdAKV-147" target="Fj4q3F7yAHKbmUtNdAKV-185" edge="1">
          <mxGeometry relative="1" as="geometry">
            <mxPoint x="240" y="100" as="sourcePoint" />
            <mxPoint x="310" y="250" as="targetPoint" />
            <Array as="points">
              <mxPoint x="240" y="110" />
              <mxPoint x="290" y="110" />
            </Array>
          </mxGeometry>
        </mxCell>
        <mxCell id="Fj4q3F7yAHKbmUtNdAKV-187" value="" style="endArrow=open;strokeColor=#11202c;endFill=1;rounded=0;fillColor=#0050ef;entryX=0.5;entryY=1;entryDx=0;entryDy=0;jumpStyle=arc;edgeStyle=elbowEdgeStyle;strokeWidth=3;dashed=1;elbow=vertical;dashPattern=1 1;exitX=0.5;exitY=0;exitDx=0;exitDy=0;" parent="2" target="Fj4q3F7yAHKbmUtNdAKV-185" edge="1" source="Fj4q3F7yAHKbmUtNdAKV-157">
          <mxGeometry relative="1" as="geometry">
            <mxPoint x="230" y="440" as="sourcePoint" />
            <mxPoint x="280" y="452" as="targetPoint" />
            <Array as="points">
              <mxPoint x="250" y="410" />
            </Array>
          </mxGeometry>
        </mxCell>
        <mxCell id="Fj4q3F7yAHKbmUtNdAKV-184" value="" style="endArrow=open;strokeColor=#11202c;endFill=1;rounded=0;exitX=1;exitY=0.5;exitDx=0;exitDy=0;fillColor=#0050ef;entryX=0;entryY=0.5;entryDx=0;entryDy=0;jumpStyle=arc;edgeStyle=orthogonalEdgeStyle;strokeWidth=3;dashed=1;dashPattern=1 1;" parent="2" source="Fj4q3F7yAHKbmUtNdAKV-155" target="Fj4q3F7yAHKbmUtNdAKV-185" edge="1">
          <mxGeometry relative="1" as="geometry">
            <mxPoint x="239" y="240" as="sourcePoint" />
            <mxPoint x="269" y="240" as="targetPoint" />
          </mxGeometry>
        </mxCell>
        <mxCell id="Fj4q3F7yAHKbmUtNdAKV-147" value="" style="rhombus;whiteSpace=wrap;html=1;strokeColor=#36393d;fillColor=#cdeb8b;" parent="2" vertex="1">
          <mxGeometry x="230" y="70" width="20" height="20" as="geometry" />
        </mxCell>
        <mxCell id="Fj4q3F7yAHKbmUtNdAKV-138" value="" style="endArrow=open;strokeColor=#005700;endFill=1;rounded=0;exitX=1;exitY=0.581;exitDx=0;exitDy=0;exitPerimeter=0;fillColor=#008a00;edgeStyle=elbowEdgeStyle;entryX=0;entryY=0.5;entryDx=0;entryDy=0;" parent="2" source="Fj4q3F7yAHKbmUtNdAKV-80" target="Fj4q3F7yAHKbmUtNdAKV-147" edge="1">
          <mxGeometry relative="1" as="geometry">
            <mxPoint x="209" y="146" as="sourcePoint" />
            <mxPoint x="259" y="80" as="targetPoint" />
            <Array as="points">
              <mxPoint x="210" y="120" />
            </Array>
          </mxGeometry>
        </mxCell>
        <mxCell id="Fj4q3F7yAHKbmUtNdAKV-157" value="" style="rhombus;whiteSpace=wrap;html=1;fontColor=#0000CC;strokeColor=#750000;" parent="2" vertex="1">
          <mxGeometry x="230" y="440" width="20" height="20" as="geometry" />
        </mxCell>
        <mxCell id="Fj4q3F7yAHKbmUtNdAKV-185" value="" style="rhombus;whiteSpace=wrap;html=1;fontColor=#0000CC;strokeColor=#23445d;fillColor=#bac8d3;strokeWidth=1;" parent="2" vertex="1">
          <mxGeometry x="280" y="220" width="20" height="20" as="geometry" />
        </mxCell>
        <mxCell id="Fj4q3F7yAHKbmUtNdAKV-139" value="" style="endArrow=open;strokeColor=#005700;endFill=1;rounded=0;exitX=1;exitY=0.5;exitDx=0;exitDy=0;fillColor=#008a00;edgeStyle=elbowEdgeStyle;entryX=0;entryY=0.5;entryDx=0;entryDy=0;" parent="2" source="Fj4q3F7yAHKbmUtNdAKV-75" target="Fj4q3F7yAHKbmUtNdAKV-147" edge="1">
          <mxGeometry relative="1" as="geometry">
            <mxPoint x="199" y="166" as="sourcePoint" />
            <mxPoint x="279" y="155" as="targetPoint" />
            <Array as="points">
              <mxPoint x="210" y="140" />
            </Array>
          </mxGeometry>
        </mxCell>
        <mxCell id="Fj4q3F7yAHKbmUtNdAKV-155" value="" style="rhombus;whiteSpace=wrap;html=1;strokeColor=#36393d;fillColor=#cce5ff;" parent="2" vertex="1">
          <mxGeometry x="220" y="220" width="20" height="20" as="geometry" />
        </mxCell>
        <mxCell id="Fj4q3F7yAHKbmUtNdAKV-149" value="" style="endArrow=classic;html=1;rounded=0;strokeWidth=4;fillColor=#60a917;strokeColor=#2D7600;jumpStyle=arc;exitX=0.5;exitY=0;exitDx=0;exitDy=0;entryX=0;entryY=0.5;entryDx=0;entryDy=0;edgeStyle=elbowEdgeStyle;" parent="2" source="Fj4q3F7yAHKbmUtNdAKV-147" edge="1">
          <mxGeometry width="50" height="50" relative="1" as="geometry">
            <mxPoint x="250" y="155" as="sourcePoint" />
            <mxPoint x="337.5" y="80" as="targetPoint" />
          </mxGeometry>
        </mxCell>
        <mxCell id="Fj4q3F7yAHKbmUtNdAKV-158" value="" style="endArrow=classic;html=1;rounded=0;exitX=1;exitY=0.5;exitDx=0;exitDy=0;strokeWidth=4;fillColor=#0050ef;strokeColor=#CC0000;jumpStyle=arc;entryX=0;entryY=0.5;entryDx=0;entryDy=0;" parent="2" source="Fj4q3F7yAHKbmUtNdAKV-157" edge="1">
          <mxGeometry width="50" height="50" relative="1" as="geometry">
            <mxPoint x="260" y="240" as="sourcePoint" />
            <mxPoint x="335" y="450" as="targetPoint" />
          </mxGeometry>
        </mxCell>
        <mxCell id="Fj4q3F7yAHKbmUtNdAKV-191" value="" style="endArrow=classic;html=1;rounded=0;strokeWidth=4;fillColor=#60a917;strokeColor=#11202C;jumpStyle=arc;exitX=1;exitY=0.5;exitDx=0;exitDy=0;entryX=-0.004;entryY=0.443;entryDx=0;entryDy=0;entryPerimeter=0;" parent="2" source="Fj4q3F7yAHKbmUtNdAKV-185" edge="1">
          <mxGeometry width="50" height="50" relative="1" as="geometry">
            <mxPoint x="438" y="200" as="sourcePoint" />
            <mxPoint x="349" y="229.87" as="targetPoint" />
          </mxGeometry>
        </mxCell>
        <mxCell id="Fj4q3F7yAHKbmUtNdAKV-137" value="" style="endArrow=open;strokeColor=#005700;endFill=1;rounded=0;exitX=1.007;exitY=0.367;exitDx=0;exitDy=0;fillColor=#008a00;edgeStyle=elbowEdgeStyle;exitPerimeter=0;entryX=0;entryY=0.5;entryDx=0;entryDy=0;" parent="2" source="Fj4q3F7yAHKbmUtNdAKV-79" target="Fj4q3F7yAHKbmUtNdAKV-147" edge="1">
          <mxGeometry relative="1" as="geometry">
            <mxPoint x="209" y="101" as="sourcePoint" />
            <mxPoint x="269" y="155" as="targetPoint" />
            <Array as="points">
              <mxPoint x="210" y="110" />
            </Array>
          </mxGeometry>
        </mxCell>
        <mxCell id="Fj4q3F7yAHKbmUtNdAKV-93" value="" style="endArrow=none;strokeColor=#001DBC;endFill=0;rounded=0;exitX=1.003;exitY=0.361;exitDx=0;exitDy=0;exitPerimeter=0;fillColor=#0050ef;edgeStyle=orthogonalEdgeStyle;entryX=0.5;entryY=1;entryDx=0;entryDy=0;" parent="2" target="Fj4q3F7yAHKbmUtNdAKV-155" edge="1">
          <mxGeometry relative="1" as="geometry">
            <mxPoint x="160.38999999999987" y="272.10800000000006" as="sourcePoint" />
            <mxPoint x="180" y="92" as="targetPoint" />
          </mxGeometry>
        </mxCell>
        <mxCell id="Fj4q3F7yAHKbmUtNdAKV-105" value="" style="endArrow=none;strokeColor=#B20000;endFill=0;rounded=0;exitX=1;exitY=0.5;exitDx=0;exitDy=0;fillColor=#e51400;edgeStyle=orthogonalEdgeStyle;entryX=0;entryY=0.5;entryDx=0;entryDy=0;" parent="2" source="Fj4q3F7yAHKbmUtNdAKV-68" target="Fj4q3F7yAHKbmUtNdAKV-157" edge="1">
          <mxGeometry relative="1" as="geometry">
            <mxPoint x="209" y="439.03" as="sourcePoint" />
            <mxPoint x="239" y="420" as="targetPoint" />
            <Array as="points">
              <mxPoint x="220" y="438" />
              <mxPoint x="220" y="450" />
            </Array>
          </mxGeometry>
        </mxCell>
        <mxCell id="Fj4q3F7yAHKbmUtNdAKV-99" value="" style="endArrow=none;strokeColor=#001DBC;endFill=0;rounded=0;exitX=1;exitY=0.5;exitDx=0;exitDy=0;fillColor=#0050ef;edgeStyle=orthogonalEdgeStyle;entryX=0.5;entryY=1;entryDx=0;entryDy=0;" parent="2" target="Fj4q3F7yAHKbmUtNdAKV-155" edge="1">
          <mxGeometry relative="1" as="geometry">
            <mxPoint x="160" y="316" as="sourcePoint" />
            <mxPoint x="180" y="72" as="targetPoint" />
          </mxGeometry>
        </mxCell>
        <mxCell id="Fj4q3F7yAHKbmUtNdAKV-104" value="" style="endArrow=open;strokeColor=#B20000;endFill=1;rounded=0;exitX=1;exitY=0.5;exitDx=0;exitDy=0;fillColor=#e51400;edgeStyle=elbowEdgeStyle;entryX=0;entryY=0.5;entryDx=0;entryDy=0;" parent="2" source="Fj4q3F7yAHKbmUtNdAKV-69" target="Fj4q3F7yAHKbmUtNdAKV-157" edge="1">
          <mxGeometry relative="1" as="geometry">
            <mxPoint x="209" y="519.03" as="sourcePoint" />
            <mxPoint x="228.92000000000007" y="414" as="targetPoint" />
            <Array as="points">
              <mxPoint x="220" y="470" />
            </Array>
          </mxGeometry>
        </mxCell>
        <mxCell id="Fj4q3F7yAHKbmUtNdAKV-156" value="" style="endArrow=open;strokeColor=#001DBC;endFill=1;rounded=0;exitX=1;exitY=0.369;exitDx=0;exitDy=0;fillColor=#0050ef;entryX=0;entryY=0.5;entryDx=0;entryDy=0;exitPerimeter=0;" parent="2" target="Fj4q3F7yAHKbmUtNdAKV-155" edge="1">
          <mxGeometry relative="1" as="geometry">
            <mxPoint x="190" y="230.332" as="sourcePoint" />
            <mxPoint x="240" y="250" as="targetPoint" />
          </mxGeometry>
        </mxCell>
        <mxCell id="Fj4q3F7yAHKbmUtNdAKV-182" value="" style="endArrow=none;strokeColor=#B20000;endFill=0;rounded=0;exitX=1;exitY=0.5;exitDx=0;exitDy=0;fillColor=#e51400;edgeStyle=orthogonalEdgeStyle;entryX=0;entryY=0.5;entryDx=0;entryDy=0;" parent="2" source="Fj4q3F7yAHKbmUtNdAKV-65" target="Fj4q3F7yAHKbmUtNdAKV-157" edge="1">
          <mxGeometry relative="1" as="geometry">
            <mxPoint x="219" y="448" as="sourcePoint" />
            <mxPoint x="279" y="430" as="targetPoint" />
            <Array as="points">
              <mxPoint x="220" y="399" />
              <mxPoint x="220" y="450" />
            </Array>
          </mxGeometry>
        </mxCell>
        <mxCell id="Fj4q3F7yAHKbmUtNdAKV-189" value="" style="endArrow=open;strokeColor=#11202c;endFill=1;rounded=0;fillColor=#0050ef;entryX=0.5;entryY=1;entryDx=0;entryDy=0;exitX=0.965;exitY=-0.015;exitDx=0;exitDy=0;jumpStyle=arc;edgeStyle=elbowEdgeStyle;exitPerimeter=0;elbow=vertical;strokeWidth=3;dashed=1;dashPattern=1 1;" parent="2" source="Fj4q3F7yAHKbmUtNdAKV-76" target="Fj4q3F7yAHKbmUtNdAKV-185" edge="1">
          <mxGeometry relative="1" as="geometry">
            <mxPoint x="249" y="537" as="sourcePoint" />
            <mxPoint x="359" y="332" as="targetPoint" />
            <Array as="points">
              <mxPoint x="279" y="550" />
            </Array>
          </mxGeometry>
        </mxCell>
        <mxCell id="Fj4q3F7yAHKbmUtNdAKV-190" value="" style="endArrow=open;strokeColor=#11202c;endFill=1;rounded=0;fillColor=#0050ef;entryX=0.5;entryY=1;entryDx=0;entryDy=0;exitX=1;exitY=0.5;exitDx=0;exitDy=0;jumpStyle=arc;edgeStyle=orthogonalEdgeStyle;strokeWidth=3;dashed=1;dashPattern=1 1;" parent="2" source="Fj4q3F7yAHKbmUtNdAKV-110" target="Fj4q3F7yAHKbmUtNdAKV-185" edge="1">
          <mxGeometry relative="1" as="geometry">
            <mxPoint x="249" y="589" as="sourcePoint" />
            <mxPoint x="369" y="342" as="targetPoint" />
          </mxGeometry>
        </mxCell>
        <mxCell id="Fj4q3F7yAHKbmUtNdAKV-188" value="" style="endArrow=open;strokeColor=#11202c;endFill=1;rounded=0;fillColor=#0050ef;entryX=0.5;entryY=1;entryDx=0;entryDy=0;exitX=0.958;exitY=-0.016;exitDx=0;exitDy=0;jumpStyle=arc;edgeStyle=elbowEdgeStyle;exitPerimeter=0;elbow=vertical;strokeWidth=3;dashed=1;dashPattern=1 1;" parent="2" source="Fj4q3F7yAHKbmUtNdAKV-86" target="Fj4q3F7yAHKbmUtNdAKV-185" edge="1">
          <mxGeometry relative="1" as="geometry">
            <mxPoint x="279" y="512" as="sourcePoint" />
            <mxPoint x="349" y="322" as="targetPoint" />
            <Array as="points">
              <mxPoint x="279" y="500" />
            </Array>
          </mxGeometry>
        </mxCell>
        <mxCell id="Fj4q3F7yAHKbmUtNdAKV-115" value="" style="endArrow=classic;html=1;rounded=0;exitX=0.5;exitY=0;exitDx=0;exitDy=0;strokeWidth=4;fillColor=#0050ef;strokeColor=#001DBC;entryX=0;entryY=0.5;entryDx=0;entryDy=0;jumpStyle=arc;edgeStyle=orthogonalEdgeStyle;" parent="1" source="Fj4q3F7yAHKbmUtNdAKV-155" target="Fj4q3F7yAHKbmUtNdAKV-153" edge="1">
          <mxGeometry width="50" height="50" relative="1" as="geometry">
            <mxPoint x="479" y="240" as="sourcePoint" />
            <mxPoint x="789" y="322.5" as="targetPoint" />
          </mxGeometry>
        </mxCell>
        <mxCell id="Fj4q3F7yAHKbmUtNdAKV-96" value="" style="endArrow=open;strokeColor=#001DBC;endFill=1;rounded=0;exitX=0.987;exitY=0.924;exitDx=0;exitDy=0;fillColor=#0050ef;exitPerimeter=0;entryX=0;entryY=0.5;entryDx=0;entryDy=0;" parent="1" source="Fj4q3F7yAHKbmUtNdAKV-54" target="Fj4q3F7yAHKbmUtNdAKV-95" edge="1">
          <mxGeometry relative="1" as="geometry">
            <mxPoint x="189" y="268" as="sourcePoint" />
            <mxPoint x="229" y="430" as="targetPoint" />
          </mxGeometry>
        </mxCell>
        <mxCell id="Fj4q3F7yAHKbmUtNdAKV-78" value="" style="endArrow=open;strokeColor=#005700;endFill=1;rounded=0;exitX=0.998;exitY=0.084;exitDx=0;exitDy=0;entryX=0;entryY=0.5;entryDx=0;entryDy=0;exitPerimeter=0;fillColor=#008a00;" parent="1" source="Fj4q3F7yAHKbmUtNdAKV-54" target="Fj4q3F7yAHKbmUtNdAKV-75" edge="1">
          <mxGeometry relative="1" as="geometry">
            <mxPoint x="198" y="280" as="sourcePoint" />
            <mxPoint x="259" y="284" as="targetPoint" />
          </mxGeometry>
        </mxCell>
        <mxCell id="Fj4q3F7yAHKbmUtNdAKV-62" value="" style="endArrow=open;strokeColor=#001DBC;endFill=1;rounded=0;entryX=0;entryY=0.5;entryDx=0;entryDy=0;exitX=1;exitY=0.5;exitDx=0;exitDy=0;fillColor=#0050ef;" parent="1" source="Fj4q3F7yAHKbmUtNdAKV-54" target="Fj4q3F7yAHKbmUtNdAKV-61" edge="1">
          <mxGeometry relative="1" as="geometry">
            <mxPoint x="189" y="217" as="sourcePoint" />
            <mxPoint x="259" y="228" as="targetPoint" />
          </mxGeometry>
        </mxCell>
        <mxCell id="20" value="" style="endArrow=open;strokeColor=#001DBC;endFill=1;rounded=0;exitX=0.988;exitY=0.296;exitDx=0;exitDy=0;entryX=0;entryY=0.5;entryDx=0;entryDy=0;exitPerimeter=0;fillColor=#0050ef;" parent="1" source="Fj4q3F7yAHKbmUtNdAKV-54" target="Fj4q3F7yAHKbmUtNdAKV-59" edge="1">
          <mxGeometry relative="1" as="geometry">
            <mxPoint x="379" y="488" as="sourcePoint" />
          </mxGeometry>
        </mxCell>
        <mxCell id="Fj4q3F7yAHKbmUtNdAKV-64" value="" style="endArrow=open;strokeColor=#001DBC;endFill=1;rounded=0;exitX=0.997;exitY=0.706;exitDx=0;exitDy=0;entryX=0;entryY=0.5;entryDx=0;entryDy=0;fillColor=#0050ef;exitPerimeter=0;" parent="1" source="Fj4q3F7yAHKbmUtNdAKV-54" target="Fj4q3F7yAHKbmUtNdAKV-63" edge="1">
          <mxGeometry relative="1" as="geometry">
            <mxPoint x="199" y="271" as="sourcePoint" />
            <mxPoint x="259" y="272" as="targetPoint" />
          </mxGeometry>
        </mxCell>
        <mxCell id="Fj4q3F7yAHKbmUtNdAKV-66" value="" style="endArrow=open;strokeColor=#FF0000;endFill=1;rounded=0;exitX=1;exitY=0.25;exitDx=0;exitDy=0;entryX=0;entryY=0.5;entryDx=0;entryDy=0;" parent="1" source="Fj4q3F7yAHKbmUtNdAKV-55" target="Fj4q3F7yAHKbmUtNdAKV-65" edge="1">
          <mxGeometry relative="1" as="geometry">
            <mxPoint x="199" y="340" as="sourcePoint" />
            <mxPoint x="259" y="396" as="targetPoint" />
          </mxGeometry>
        </mxCell>
        <mxCell id="Fj4q3F7yAHKbmUtNdAKV-72" value="" style="endArrow=open;strokeColor=#FF0000;endFill=1;rounded=0;exitX=1;exitY=0.5;exitDx=0;exitDy=0;entryX=0;entryY=0.5;entryDx=0;entryDy=0;" parent="1" source="Fj4q3F7yAHKbmUtNdAKV-55" target="Fj4q3F7yAHKbmUtNdAKV-68" edge="1">
          <mxGeometry relative="1" as="geometry">
            <mxPoint x="199" y="363" as="sourcePoint" />
            <mxPoint x="259" y="317" as="targetPoint" />
          </mxGeometry>
        </mxCell>
        <mxCell id="Fj4q3F7yAHKbmUtNdAKV-73" value="" style="endArrow=open;strokeColor=#FF0000;endFill=1;rounded=0;exitX=1;exitY=0.75;exitDx=0;exitDy=0;entryX=0;entryY=0.5;entryDx=0;entryDy=0;" parent="1" source="Fj4q3F7yAHKbmUtNdAKV-55" target="Fj4q3F7yAHKbmUtNdAKV-69" edge="1">
          <mxGeometry relative="1" as="geometry">
            <mxPoint x="199" y="375" as="sourcePoint" />
            <mxPoint x="259" y="357" as="targetPoint" />
          </mxGeometry>
        </mxCell>
        <mxCell id="Fj4q3F7yAHKbmUtNdAKV-97" value="" style="endArrow=open;strokeColor=#001DBC;endFill=1;rounded=0;exitX=0.999;exitY=0.1;exitDx=0;exitDy=0;exitPerimeter=0;fillColor=#0050ef;entryX=-0.009;entryY=0.618;entryDx=0;entryDy=0;entryPerimeter=0;" parent="1" source="Fj4q3F7yAHKbmUtNdAKV-55" target="Fj4q3F7yAHKbmUtNdAKV-95" edge="1">
          <mxGeometry relative="1" as="geometry">
            <mxPoint x="209" y="344" as="sourcePoint" />
            <mxPoint x="229" y="280" as="targetPoint" />
          </mxGeometry>
        </mxCell>
        <mxCell id="Fj4q3F7yAHKbmUtNdAKV-88" value="" style="endArrow=open;strokeColor=#BD7000;endFill=1;rounded=0;exitX=1;exitY=0.5;exitDx=0;exitDy=0;entryX=0;entryY=0.5;entryDx=0;entryDy=0;fillColor=#f0a30a;" parent="1" source="Fj4q3F7yAHKbmUtNdAKV-74" target="Fj4q3F7yAHKbmUtNdAKV-86" edge="1">
          <mxGeometry relative="1" as="geometry">
            <mxPoint x="199" y="565" as="sourcePoint" />
            <mxPoint x="259" y="578" as="targetPoint" />
          </mxGeometry>
        </mxCell>
        <mxCell id="Fj4q3F7yAHKbmUtNdAKV-89" value="" style="endArrow=open;strokeColor=#3700CC;endFill=1;rounded=0;exitX=1;exitY=0.5;exitDx=0;exitDy=0;entryX=0;entryY=0.5;entryDx=0;entryDy=0;fillColor=#6a00ff;" parent="1" source="Fj4q3F7yAHKbmUtNdAKV-56" target="Fj4q3F7yAHKbmUtNdAKV-76" edge="1">
          <mxGeometry relative="1" as="geometry">
            <mxPoint x="189" y="662" as="sourcePoint" />
            <mxPoint x="249" y="664" as="targetPoint" />
          </mxGeometry>
        </mxCell>
        <mxCell id="Fj4q3F7yAHKbmUtNdAKV-85" value="" style="endArrow=open;strokeColor=#005700;endFill=1;rounded=0;exitX=1;exitY=0.75;exitDx=0;exitDy=0;fillColor=#008a00;entryX=0;entryY=0.5;entryDx=0;entryDy=0;" parent="1" source="Fj4q3F7yAHKbmUtNdAKV-57" target="Fj4q3F7yAHKbmUtNdAKV-80" edge="1">
          <mxGeometry relative="1" as="geometry">
            <mxPoint x="169" y="181" as="sourcePoint" />
            <mxPoint x="229" y="200" as="targetPoint" />
          </mxGeometry>
        </mxCell>
        <mxCell id="Fj4q3F7yAHKbmUtNdAKV-84" value="" style="endArrow=open;strokeColor=#005700;endFill=1;rounded=0;exitX=1;exitY=0.25;exitDx=0;exitDy=0;fillColor=#008a00;entryX=0;entryY=0.5;entryDx=0;entryDy=0;" parent="1" source="Fj4q3F7yAHKbmUtNdAKV-57" target="Fj4q3F7yAHKbmUtNdAKV-79" edge="1">
          <mxGeometry relative="1" as="geometry">
            <mxPoint x="169" y="165.5" as="sourcePoint" />
            <mxPoint x="228" y="170" as="targetPoint" />
          </mxGeometry>
        </mxCell>
        <mxCell id="Fj4q3F7yAHKbmUtNdAKV-143" value="" style="endArrow=classic;html=1;rounded=0;exitX=1;exitY=0.5;exitDx=0;exitDy=0;strokeWidth=4;fillColor=#f0a30a;strokeColor=#BD7000;entryX=0.095;entryY=1.015;entryDx=0;entryDy=0;jumpStyle=arc;entryPerimeter=0;edgeStyle=orthogonalEdgeStyle;elbow=vertical;" parent="1" source="Fj4q3F7yAHKbmUtNdAKV-86" target="Fj4q3F7yAHKbmUtNdAKV-132" edge="1">
          <mxGeometry width="50" height="50" relative="1" as="geometry">
            <mxPoint x="409" y="620" as="sourcePoint" />
            <mxPoint x="789" y="555" as="targetPoint" />
          </mxGeometry>
        </mxCell>
        <mxCell id="Fj4q3F7yAHKbmUtNdAKV-82" value="" style="endArrow=open;strokeColor=#005700;endFill=1;rounded=0;exitX=1;exitY=0.5;exitDx=0;exitDy=0;entryX=0;entryY=0.5;entryDx=0;entryDy=0;fillColor=#008a00;" parent="1" source="Fj4q3F7yAHKbmUtNdAKV-58" target="Fj4q3F7yAHKbmUtNdAKV-81" edge="1">
          <mxGeometry relative="1" as="geometry">
            <mxPoint x="177" y="42" as="sourcePoint" />
            <mxPoint x="229" y="155" as="targetPoint" />
          </mxGeometry>
        </mxCell>
        <mxCell id="Fj4q3F7yAHKbmUtNdAKV-141" value="" style="endArrow=classic;html=1;rounded=0;exitX=1;exitY=0.5;exitDx=0;exitDy=0;strokeWidth=4;fillColor=#6a00ff;strokeColor=#3700CC;entryX=0;entryY=0.5;entryDx=0;entryDy=0;jumpStyle=arc;" parent="1" source="Fj4q3F7yAHKbmUtNdAKV-76" target="Fj4q3F7yAHKbmUtNdAKV-154" edge="1">
          <mxGeometry width="50" height="50" relative="1" as="geometry">
            <mxPoint x="419" y="671" as="sourcePoint" />
            <mxPoint x="788.7399999999998" y="698.55" as="targetPoint" />
          </mxGeometry>
        </mxCell>
        <mxCell id="Fj4q3F7yAHKbmUtNdAKV-219" value="&lt;h1 style=&quot;margin-top: 0px;&quot;&gt;BUSINESS INTELLIGENCE DIAGRAM FOR AFRL PPBE DATA INTEGRATION&amp;nbsp;&lt;/h1&gt;&lt;p&gt;This diagram follows data from sourcing to KPI production for support of transparency and data strategy collaboration.&lt;/p&gt;" style="text;html=1;whiteSpace=wrap;overflow=hidden;rounded=0;" parent="1" vertex="1">
          <mxGeometry x="90" y="10" width="930" height="70" as="geometry" />
        </mxCell>
      </root>
    </mxGraphModel>
  </diagram>
</mxfile>
